<?xml version="1.0" encoding="utf-8"?>
<!-- Generator: Adobe Illustrator 19.1.0, SVG Export Plug-In . SVG Version: 6.00 Build 0)  -->
<svg version="1.1" id="Layer_1" xmlns="http://www.w3.org/2000/svg" xmlns:xlink="http://www.w3.org/1999/xlink" x="0px" y="0px"
	 viewBox="0 0 163.6 285.5" enable-background="new 0 0 163.6 285.5" xml:space="preserve">
<rect x="6.8" y="43" fill="none" width="150" height="31.7"/>
<text transform="matrix(1 0 0 1 31.7738 47.2063)" font-family="'CooperBlackStd'" font-size="6px">I do suicides on the private jet.</text>
<rect x="6.8" y="131.2" fill="none" width="150" height="31.7"/>
<text transform="matrix(1 0 0 1 13.5491 139.6618)"><tspan x="0" y="0" font-family="'CooperBlackStd'" font-size="12px">You know what that </tspan><tspan x="48" y="14.4" font-family="'CooperBlackStd'" font-size="12px">mean?</tspan></text>
<rect x="6.8" y="216.5" fill="none" width="150" height="55.4"/>
<text transform="matrix(1 0 0 1 47.0088 230.4744)"><tspan x="0" y="0" font-family="'CooperBlackStd'" font-size="20px">I’m fly </tspan><tspan x="-13.1" y="24" font-family="'CooperBlackStd'" font-size="20px">to death.</tspan></text>
</svg>



 <?xml version="1.0" encoding="utf-8"?>
<!-- Generator: Adobe Illustrator 19.1.0, SVG Export Plug-In . SVG Version: 6.00 Build 0)  -->
<svg version="1.1" id="Layer_1" xmlns="http://www.w3.org/2000/svg" xmlns:xlink="http://www.w3.org/1999/xlink" x="0px" y="0px"
   viewBox="0 0 163.6 150" enable-background="new 0 0 163.6 150" xml:space="preserve">
<g class="parallax"> 
  <g class="parallax_layer parallax_layer_back quote1">
    <rect x="6.8" y="43" fill="none" width="150" height="31.7"/>
    <text transform="matrix(1 0 0 1 31.7738 47.2063)" font-family="'CooperBlackStd'" font-size="6px">I do suicides on the private jet.</text>
  </g>

  <g class="parallax_layer parallax_layer_base quote2">
    <rect x="6.8" y="131.2" fill="none" width="150" height="31.7"/>
    <text transform="matrix(1 0 0 1 13.5491 139.6618)"><tspan x="0" y="0" font-family="'CooperBlackStd'" font-size="12px">You know what that </tspan><tspan x="48" y="14.4" font-family="'CooperBlackStd'" font-size="12px">mean?</tspan></text>
  </g>

  <g class="parallax_layer parallax_layer_back quote3">
    <rect x="6.8" y="216.5" fill="none" width="150" height="55.4"/>
    <text transform="matrix(1 0 0 1 47.0088 230.4744)"><tspan x="0" y="0" font-family="'CooperBlackStd'" font-size="20px">I’m fly </tspan><tspan x="-13.1" y="24" font-family="'CooperBlackStd'" font-size="20px">to death.</tspan></text>
  </g>
</g> 

</svg>