<?xml version="1.0" encoding="utf-8"?>
<!-- Generator: Adobe Illustrator 19.1.0, SVG Export Plug-In . SVG Version: 6.00 Build 0)  -->
<svg version="1.1" id="Layer_1" xmlns="http://www.w3.org/2000/svg" xmlns:xlink="http://www.w3.org/1999/xlink" x="0px" y="0px"
	 viewBox="765 -1752.9 1680 3655.9" enable-background="new 765 -1752.9 1680 3655.9" xml:space="preserve">
<rect x="765" y="976.1" fill="none" width="1680" height="927"/>
<text transform="matrix(1 0 0 1 1335.0017 1816.072)" opacity="0.12" enable-background="new    " font-family="'Stag-Semibold'" font-size="1200px">?</text>
<rect x="-1042.5" y="-84.2" fill="#ECECE0" width="1687.6" height="1066.7"/>
<rect x="871" y="72.8" fill="none" width="1475.6" height="454.8"/>
<text transform="matrix(1 0 0 1 888.1147 206.9768)" font-family="'OCRAStd'" font-size="182px">What’s that </text>
<text transform="matrix(1 0 0 1 1150.2147 425.3768)" font-family="'OCRAStd'" font-size="182px">jacket,</text>
<rect x="714.4" y="-1408.5" transform="matrix(-0.8595 -0.5111 0.5111 -0.8595 3330.1841 -1779.4058)" fill="none" width="1412.3" height="122.3"/>
<text transform="matrix(0.8595 0.5111 -0.5111 0.8595 993.7353 -1576.3109)" font-family="'OCRAStd'" font-size="112px">What’s Louie </text>
<rect x="1051.5" y="-630.8" transform="matrix(-0.8598 0.5106 -0.5106 -0.8598 3055.0334 -1906.853)" fill="none" width="1475.6" height="193.5"/>
<text transform="matrix(0.8598 -0.5106 0.5106 0.8598 1366.0642 -299.201)" font-family="'OCRAStd'" font-size="112px">What’s drugs </text>
<rect x="765" y="605.6" fill="none" width="1680" height="304.5"/>
<text transform="matrix(1 0 0 1 867.9062 791.491)" font-family="'Stag-BoldDot'" font-size="260px">MARGIELA</text>
<rect x="1073.6" y="-558.4" transform="matrix(-0.8598 0.5106 -0.5106 -0.8598 3359.4814 -1703.1707)" fill="none" width="1680" height="336"/>
<text transform="matrix(0.8598 -0.5106 0.5106 0.8598 1437.0076 -157.8352)" font-family="'Outage-Regular'" font-size="178px">MY DEALA?</text>
<rect x="617.6" y="-1327.8" transform="matrix(-0.8595 -0.5111 0.5111 -0.8595 3068.5276 -1532.1987)" fill="none" width="1412.3" height="280"/>
<text transform="matrix(0.8595 0.5111 -0.5111 0.8595 908.8676 -1452.3392)" font-family="'Outage-Cut'" font-size="178px">my killa?</text>
</svg>
